<?xml version="1.0" encoding="utf-8"?>
<!-- Generator: Adobe Illustrator 18.1.1, SVG Export Plug-In . SVG Version: 6.00 Build 0)  -->
<svg version="1.1" id="圖層_1" xmlns="http://www.w3.org/2000/svg" xmlns:xlink="http://www.w3.org/1999/xlink" x="0px" y="0px"
	 viewBox="0 0 34.5 50.5" enable-background="new 0 0 34.5 50.5" xml:space="preserve">
<g>
	<path fill="#595757" d="M22,50.5h-9.5C5.6,50.5,0,44.9,0,38V12.5C0,5.6,5.6,0,12.5,0H22c6.9,0,12.5,5.6,12.5,12.5V38
		C34.5,44.9,28.9,50.5,22,50.5z M12.5,1C6.2,1,1,6.2,1,12.5V38c0,6.3,5.2,11.5,11.5,11.5H22c6.3,0,11.5-5.2,11.5-11.5V12.5
		C33.5,6.2,28.3,1,22,1H12.5z"/>
</g>
<g>
	<path fill="#595757" d="M17.4,20.5L17.4,20.5c-2.1,0-3.8-1.7-3.8-3.8V9.3c0-2.1,1.7-3.8,3.8-3.8h0c2.1,0,3.8,1.7,3.8,3.8v7.3
		C21.3,18.7,19.5,20.5,17.4,20.5z"/>
	<path fill="#595757" d="M17.4,21c-2.4,0-4.3-1.9-4.3-4.3V9.3c0-2.4,1.9-4.3,4.3-4.3s4.3,1.9,4.3,4.3v7.3C21.8,19,19.8,21,17.4,21z
		 M17.4,6c-1.8,0-3.3,1.5-3.3,3.3v7.3c0,1.8,1.5,3.3,3.3,3.3s3.3-1.5,3.3-3.3V9.3C20.8,7.5,19.3,6,17.4,6z"/>
</g>
<g opacity="0.5">
	<path fill="#595757" d="M17.4,23.9c-3.5,0-6.3-2.8-6.3-6.3h1c0,2.9,2.4,5.3,5.3,5.3c2.9,0,5.3-2.4,5.3-5.3h1
		C23.8,21,20.9,23.9,17.4,23.9z"/>
</g>
<g opacity="0.2">
	<path fill="#595757" d="M17.4,27.3c-5.4,0-9.7-4.4-9.7-9.7h1c0,4.8,3.9,8.7,8.7,8.7s8.7-3.9,8.7-8.7h1
		C27.1,22.9,22.8,27.3,17.4,27.3z"/>
</g>
<g opacity="0.2">
	<path fill="#595757" d="M17.4,30C10.6,30,5,24.4,5,17.5h1C6,23.9,11.1,29,17.4,29s11.5-5.1,11.5-11.5h1C29.9,24.4,24.3,30,17.4,30z
		"/>
</g>
</svg>
